<?xml version="1.0" encoding="utf-8"?>
<!-- Generator: Adobe Illustrator 16.0.0, SVG Export Plug-In . SVG Version: 6.00 Build 0)  -->
<!DOCTYPE svg PUBLIC "-//W3C//DTD SVG 1.1//EN" "http://www.w3.org/Graphics/SVG/1.1/DTD/svg11.dtd">
<svg version="1.1" id="图层_1" xmlns="http://www.w3.org/2000/svg" xmlns:xlink="http://www.w3.org/1999/xlink" x="0px" y="0px"
	 width="131.154px" height="192.833px" viewBox="0 0 131.154 192.833" enable-background="new 0 0 131.154 192.833"
	 xml:space="preserve">
<path fill="#13AE67" d="M53.761,4.348v171.522c0,3.33-1.194,6.188-3.579,8.574c-2.389,2.387-5.246,3.579-8.576,3.579h-5.402
	c-3.332,0-6.189-1.192-8.576-3.579s-3.579-5.244-3.579-8.574V58.37h10.807v117.5c0,0.898,0.449,1.351,1.35,1.351h5.402
	c0.897,0,1.351-0.451,1.351-1.351V15.153H24.049V4.348H53.761z"/>
<path fill="#13AE67" d="M77.394,4.348c3.601,0,6.753,1.127,9.455,3.376c2.699-2.25,5.852-3.376,9.451-3.376h14.857v183.676h-10.805
	V15.153h-4.055c-1.078,0-2.023,0.405-2.836,1.215c-0.811,0.81-1.215,1.756-1.215,2.836v168.82H81.446V19.204
	c0-1.08-0.406-2.026-1.215-2.836c-0.813-0.811-1.756-1.215-2.837-1.215h-4.053v172.872H62.539V4.348H77.394z"/>
</svg>
