<?xml version="1.0" encoding="utf-8"?>
<!-- Generator: Adobe Illustrator 16.0.0, SVG Export Plug-In . SVG Version: 6.00 Build 0)  -->
<!DOCTYPE svg PUBLIC "-//W3C//DTD SVG 1.1//EN" "http://www.w3.org/Graphics/SVG/1.1/DTD/svg11.dtd">
<svg version="1.1" id="图层_1" xmlns="http://www.w3.org/2000/svg" xmlns:xlink="http://www.w3.org/1999/xlink" x="0px" y="0px"
	 width="131.154px" height="246.667px" viewBox="0 0 131.154 246.667" enable-background="new 0 0 131.154 246.667"
	 xml:space="preserve">
<path fill="#FCFCFC" d="M53.761,4.348v171.522c0,3.33-1.194,6.188-3.579,8.574c-2.389,2.387-5.246,3.579-8.576,3.579h-5.402
	c-3.332,0-6.189-1.192-8.576-3.579s-3.579-5.244-3.579-8.574V58.37h10.807v117.5c0,0.898,0.449,1.351,1.35,1.351h5.402
	c0.897,0,1.351-0.451,1.351-1.351V15.153H24.049V4.348H53.761z"/>
<path fill="#FCFCFC" d="M77.394,4.348c3.601,0,6.753,1.127,9.455,3.376c2.699-2.25,5.852-3.376,9.451-3.376h14.857v183.676h-10.805
	V15.153h-4.055c-1.078,0-2.023,0.405-2.836,1.215c-0.811,0.81-1.215,1.756-1.215,2.836v168.82H81.446V19.204
	c0-1.08-0.406-2.026-1.215-2.836c-0.813-0.811-1.756-1.215-2.837-1.215h-4.053v172.872H62.539V4.348H77.394z"/>
<g enable-background="new    ">
	<path fill="#FCFCFC" d="M17.493,217.574v18.842c0,1.068-0.182,2.041-0.547,2.916c-0.364,0.873-0.881,1.615-1.549,2.223
		s-1.464,1.074-2.388,1.402c-0.923,0.328-1.932,0.492-3.024,0.492c-1.944,0-3.548-0.498-4.812-1.494s-2.09-2.404-2.479-4.228
		l2.916-0.62c0.122,0.512,0.286,0.99,0.492,1.439s0.485,0.838,0.838,1.166c0.352,0.328,0.784,0.59,1.293,0.783
		c0.51,0.194,1.118,0.293,1.822,0.293c1.385,0,2.46-0.396,3.226-1.188s1.148-2.025,1.148-3.706v-15.663H5.248v-2.66h12.245V217.574z
		"/>
	<path fill="#FCFCFC" d="M24.928,243.011v-2.441h6.341v-20.556h-6.341v-2.44h15.743v2.44h-6.341v20.556h6.341v2.441H24.928z"/>
	<path fill="#FCFCFC" d="M49.71,217.574v15.27c0,1.24,0.036,2.346,0.109,3.316c0.073,0.973,0.267,1.805,0.583,2.496
		c0.314,0.692,0.808,1.223,1.476,1.586c0.668,0.364,1.598,0.547,2.788,0.547s2.119-0.183,2.788-0.547
		c0.668-0.363,1.16-0.894,1.477-1.586c0.314-0.691,0.51-1.523,0.583-2.496c0.072-0.972,0.108-2.076,0.108-3.316v-15.27h3.062v14.541
		c0,1.895-0.092,3.547-0.273,4.956c-0.183,1.409-0.56,2.589-1.13,3.535c-0.571,0.946-1.385,1.658-2.442,2.132
		c-1.057,0.475-2.447,0.711-4.173,0.711s-3.116-0.236-4.173-0.711c-1.057-0.474-1.872-1.186-2.442-2.132s-0.947-2.126-1.13-3.535
		c-0.182-1.409-0.272-3.062-0.272-4.956v-14.541H49.71z"/>
	<path fill="#FCFCFC" d="M82.182,230.255v-8.055H81.89l-5.357,13.084l-5.357-13.084h-0.292v8.055v12.756h-2.807v-25.438h3.938
		l4.482,11.225h0.219l4.482-11.225h3.79v25.438h-2.806V230.255z"/>
	<path fill="#FCFCFC" d="M90.747,243.011v-25.438h15.67v2.659H93.807v8.563h12.173v2.662H93.807v8.893h12.608v2.66H90.747z"/>
	<path fill="#FCFCFC" d="M115.273,221.472h-0.255v21.539h-2.771v-25.438h4.336l8.674,21.319h0.257v-21.319h2.77v25.438h-4.337
		L115.273,221.472z"/>
</g>
</svg>
